<svg xmlns="http://www.w3.org/2000/svg" height="512pt" version="1.1" viewBox="0 -10 512.00088 512" width="512pt">
<g id="surface1">
<path d="M 122.613281 340.285156 C 106.691406 343.464844 87.460938 334.003906 73.855469 326.867188 C 48.679688 313.664062 27.441406 294.085938 12.441406 270.25 C 2.734375 254.824219 7.367188 234.445312 22.796875 224.734375 C 38.226562 215.027344 58.601562 219.664062 68.308594 235.089844 C 89.207031 268.296875 122.066406 275.433594 122.394531 275.496094 C 140.296875 278.941406 152.011719 296.246094 148.570312 314.144531 C 145.957031 327.714844 135.378906 337.734375 122.613281 340.285156 Z M 122.613281 340.285156 " style=" stroke:none;fill-rule:nonzero;fill:rgb(93.72549%,92.941176%,93.333333%);fill-opacity:1;" />
<path d="M 389.386719 340.285156 C 405.308594 343.464844 424.535156 334.003906 438.144531 326.867188 C 463.320312 313.664062 484.554688 294.085938 499.558594 270.25 C 509.265625 254.824219 504.632812 234.445312 489.203125 224.734375 C 473.777344 215.027344 453.398438 219.664062 443.6875 235.089844 C 422.789062 268.296875 389.929688 275.433594 389.605469 275.496094 C 371.703125 278.941406 359.984375 296.246094 363.429688 314.144531 C 366.042969 327.714844 376.621094 337.734375 389.386719 340.285156 Z M 389.386719 340.285156 " style=" stroke:none;fill-rule:nonzero;fill:rgb(93.72549%,92.941176%,93.333333%);fill-opacity:1;" />
<path d="M 459.53125 313.410156 L 459.53125 221.960938 C 453.207031 224.449219 447.585938 228.898438 443.691406 235.089844 C 422.792969 268.296875 389.933594 275.433594 389.605469 275.496094 C 371.707031 278.941406 359.988281 296.242188 363.429688 314.144531 C 366.042969 327.714844 376.621094 337.734375 389.386719 340.285156 C 405.308594 343.464844 424.535156 334.003906 438.144531 326.867188 C 445.644531 322.929688 452.789062 318.417969 459.53125 313.410156 Z M 459.53125 313.410156 " style=" stroke:none;fill-rule:nonzero;fill:rgb(83.137255%,83.137255%,83.137255%);fill-opacity:1;" />
<path d="M 122.394531 275.496094 C 122.066406 275.433594 89.207031 268.296875 68.308594 235.089844 C 64.410156 228.898438 58.796875 224.449219 52.46875 221.960938 L 52.46875 313.410156 C 59.210938 318.417969 66.351562 322.929688 73.855469 326.863281 C 87.464844 334 106.691406 343.464844 122.613281 340.285156 C 135.378906 337.734375 145.957031 327.714844 148.570312 314.140625 C 152.011719 296.242188 140.292969 278.941406 122.394531 275.496094 Z M 122.394531 275.496094 " style=" stroke:none;fill-rule:nonzero;fill:rgb(83.137255%,83.137255%,83.137255%);fill-opacity:1;" />
<path d="M 256 7.523438 C 160.171875 7.523438 82.484375 85.207031 82.484375 181.035156 L 82.484375 441.890625 C 82.484375 456.375 90.019531 469.8125 102.378906 477.367188 C 116.335938 485.898438 133.253906 487.207031 147.554688 478.464844 C 160.867188 470.324219 177.617188 470.324219 190.933594 478.464844 C 204.246094 486.605469 220.996094 486.605469 234.3125 478.464844 C 247.625 470.324219 264.375 470.324219 277.691406 478.464844 C 291.003906 486.605469 307.753906 486.605469 321.066406 478.464844 C 334.382812 470.324219 351.132812 470.324219 364.445312 478.464844 C 378.625 487.132812 395.773438 485.832031 409.625 477.367188 C 421.980469 469.8125 429.511719 456.375 429.511719 441.890625 L 429.511719 181.035156 C 429.511719 85.207031 351.828125 7.523438 256 7.523438 Z M 256 7.523438 " style=" stroke:none;fill-rule:nonzero;fill:rgb(93.72549%,92.941176%,93.333333%);fill-opacity:1;" />
<path d="M 132.394531 477.367188 C 120.039062 469.8125 112.503906 456.375 112.503906 441.890625 L 112.503906 181.035156 C 112.503906 90.265625 182.207031 15.785156 271.007812 8.175781 C 266.058594 7.75 261.058594 7.523438 256 7.523438 C 160.171875 7.523438 82.484375 85.207031 82.484375 181.035156 L 82.484375 441.890625 C 82.484375 456.371094 90.019531 469.8125 102.378906 477.367188 C 114.3125 484.664062 128.414062 486.671875 141.195312 481.632812 C 138.171875 480.519531 135.222656 479.09375 132.394531 477.367188 Z M 132.394531 477.367188 " style=" stroke:none;fill-rule:nonzero;fill:rgb(83.137255%,83.137255%,83.137255%);fill-opacity:1;" />
<path d="M 341.851562 247.007812 L 321.773438 247.007812 C 317.632812 247.007812 314.269531 243.644531 314.269531 239.503906 C 314.269531 235.359375 317.632812 231.996094 321.773438 231.996094 L 341.851562 231.996094 C 345.996094 231.996094 349.355469 235.359375 349.355469 239.503906 C 349.355469 243.644531 345.996094 247.007812 341.851562 247.007812 Z M 341.851562 247.007812 " style=" stroke:none;fill-rule:nonzero;fill:rgb(97.647059%,50.196078%,51.764706%);fill-opacity:1;" />
<path d="M 190.226562 247.007812 L 170.148438 247.007812 C 166.003906 247.007812 162.644531 243.644531 162.644531 239.503906 C 162.644531 235.359375 166.003906 231.996094 170.148438 231.996094 L 190.226562 231.996094 C 194.371094 231.996094 197.730469 235.359375 197.730469 239.503906 C 197.730469 243.644531 194.371094 247.007812 190.226562 247.007812 Z M 190.226562 247.007812 " style=" stroke:none;fill-rule:nonzero;fill:rgb(97.647059%,50.196078%,51.764706%);fill-opacity:1;" />
<path d="M 339.3125 219.6875 L 339.3125 203.078125 C 339.3125 198.929688 335.953125 195.570312 331.808594 195.570312 C 327.664062 195.570312 324.304688 198.929688 324.304688 203.078125 L 324.304688 219.6875 C 324.304688 223.832031 327.664062 227.191406 331.808594 227.191406 C 335.953125 227.191406 339.3125 223.828125 339.3125 219.6875 Z M 339.3125 219.6875 " style=" stroke:none;fill-rule:nonzero;fill:rgb(0%,0%,0%);fill-opacity:1;" />
<path d="M 187.6875 219.6875 L 187.6875 203.078125 C 187.6875 198.929688 184.324219 195.570312 180.183594 195.570312 C 176.039062 195.570312 172.675781 198.929688 172.675781 203.078125 L 172.675781 219.6875 C 172.675781 223.832031 176.039062 227.191406 180.183594 227.191406 C 184.324219 227.191406 187.6875 223.828125 187.6875 219.6875 Z M 187.6875 219.6875 " style=" stroke:none;fill-rule:nonzero;fill:rgb(0%,0%,0%);fill-opacity:1;" />
<path d="M 255.996094 246.15625 C 263.445312 246.15625 270.449219 243.035156 275.207031 237.589844 C 277.933594 234.46875 277.613281 229.730469 274.492188 227 C 271.375 224.273438 266.632812 224.59375 263.90625 227.710938 C 261.996094 229.894531 259.113281 231.148438 255.996094 231.148438 C 252.875 231.148438 249.992188 229.894531 248.085938 227.710938 C 245.355469 224.59375 240.617188 224.273438 237.496094 227.003906 C 234.375 229.730469 234.058594 234.46875 236.785156 237.589844 C 241.542969 243.035156 248.542969 246.15625 255.996094 246.15625 Z M 255.996094 246.15625 " style=" stroke:none;fill-rule:nonzero;fill:rgb(0%,0%,0%);fill-opacity:1;" />
<path d="M 70.363281 333.492188 C 71.691406 334.1875 73.265625 335.007812 74.976562 335.875 L 74.976562 377.363281 C 74.976562 381.503906 78.335938 384.867188 82.480469 384.867188 C 86.625 384.867188 89.984375 381.503906 89.984375 377.363281 L 89.984375 181.015625 C 89.984375 89.480469 164.457031 15.007812 255.996094 15.007812 C 292.410156 15.007812 326.980469 26.582031 355.96875 48.484375 C 359.273438 50.984375 363.980469 50.328125 366.480469 47.019531 C 368.976562 43.714844 368.320312 39.007812 365.015625 36.511719 C 333.402344 12.625 295.703125 0 255.996094 0 C 156.179688 0 74.976562 81.203125 74.976562 181.015625 L 74.976562 231.570312 C 74.871094 231.402344 74.757812 231.242188 74.65625 231.074219 C 62.90625 212.414062 37.453125 206.625 18.792969 218.367188 C 0.132812 230.109375 -5.65625 255.574219 6.085938 274.230469 C 21.789062 299.183594 44.015625 319.675781 70.363281 333.492188 Z M 15.601562 247.015625 C 17.058594 240.617188 20.910156 234.765625 26.789062 231.070312 C 38.578125 223.652344 54.542969 227.296875 61.953125 239.070312 C 65.707031 245.03125 70.078125 250.597656 74.976562 255.65625 L 74.976562 318.941406 C 52.003906 306.382812 32.613281 288.203125 18.789062 266.234375 C 15.082031 260.347656 14.144531 253.410156 15.601562 247.015625 Z M 15.601562 247.015625 " style=" stroke:none;fill-rule:nonzero;fill:rgb(0%,0%,0%);fill-opacity:1;" />
<path d="M 437.335938 231.074219 C 437.230469 231.242188 437.117188 231.40625 437.015625 231.570312 L 437.015625 181.015625 C 437.015625 134.992188 419.710938 91.121094 388.296875 57.488281 C 385.46875 54.460938 380.71875 54.296875 377.691406 57.128906 C 374.664062 59.957031 374.5 64.703125 377.332031 67.734375 C 406.140625 98.578125 422.003906 138.808594 422.003906 181.019531 L 422.003906 441.875 C 422.003906 453.660156 415.761719 464.800781 405.703125 470.945312 C 393.449219 478.4375 379.484375 478.851562 368.355469 472.046875 C 352.5625 462.390625 332.941406 462.390625 317.148438 472.046875 C 306.183594 478.75 292.5625 478.75 281.597656 472.046875 C 265.804688 462.390625 246.183594 462.390625 230.390625 472.046875 C 219.425781 478.75 205.804688 478.75 194.839844 472.046875 C 179.050781 462.390625 159.429688 462.390625 143.632812 472.046875 C 132.503906 478.851562 118.542969 478.441406 106.289062 470.945312 C 96.230469 464.796875 89.984375 453.65625 89.984375 441.875 L 89.984375 407.378906 C 89.984375 403.234375 86.625 399.875 82.480469 399.875 C 78.335938 399.875 74.976562 403.234375 74.976562 407.378906 L 74.976562 441.875 C 74.976562 458.847656 83.976562 474.894531 98.460938 483.75 C 115.617188 494.242188 135.433594 494.652344 151.464844 484.851562 C 162.429688 478.144531 176.050781 478.144531 187.015625 484.851562 C 202.808594 494.503906 222.429688 494.503906 238.222656 484.851562 C 249.183594 478.144531 262.808594 478.144531 273.769531 484.851562 C 281.667969 489.675781 290.519531 492.089844 299.375 492.089844 C 308.226562 492.089844 317.082031 489.675781 324.976562 484.851562 C 335.941406 478.144531 349.5625 478.144531 360.527344 484.851562 C 376.320312 494.503906 396.628906 494.082031 413.535156 483.75 C 428.015625 474.894531 437.015625 458.847656 437.015625 441.871094 L 437.015625 335.875 C 438.726562 335.007812 440.300781 334.1875 441.625 333.492188 C 467.972656 319.675781 490.199219 299.183594 505.90625 274.226562 C 517.671875 255.53125 511.851562 230.105469 493.195312 218.367188 C 474.476562 206.585938 449.097656 212.382812 437.335938 231.074219 Z M 471.65625 227.335938 C 476.34375 227.277344 481.0625 228.464844 485.203125 231.070312 C 496.96875 238.472656 500.613281 254.460938 493.203125 266.234375 C 479.378906 288.203125 459.988281 306.382812 437.015625 318.941406 L 437.015625 255.65625 C 441.914062 250.597656 446.285156 245.03125 450.035156 239.070312 C 454.675781 231.695312 463.113281 227.441406 471.65625 227.335938 Z M 471.65625 227.335938 " style=" stroke:none;fill-rule:nonzero;fill:rgb(0%,0%,0%);fill-opacity:1;" />
</g>
</svg>